<svg version="1" xmlns="http://www.w3.org/2000/svg" width="933.333" height="933.333" viewBox="0 0 700.000000 700.000000"><path d="M557.5 161.5c-4.4 1.2-19.2 5.3-33 9l-25 6.7-18.7 28.6c-10.2 15.8-29.8 45.9-43.5 66.9-13.6 21.1-25 38.3-25.3 38.3-.3 0-.5-24.8-.5-55 .1-30.3-.1-55-.3-55-1.1 0-47.1 12.2-48.9 13l-2.3 1v125.5c0 69 .3 125.5.8 125.5.4 0 5-1.2 10.2-2.6 5.2-1.4 10.2-2.7 11-3 .8-.2 4.1-1.1 7.2-1.9 12.1-3.2 16.4-4.4 19.3-5.3l3-.8v-34.5l.1-34.4 18.2-26.5c10-14.6 18.6-26.5 19.1-26.5s12.6 16.4 26.9 36.5c14.3 20.1 28.9 40.5 32.3 45.3 3.5 4.9 6.9 9.6 7.5 10.4 1 1.4 2.7 1.2 15.5-2.2 7.9-2.1 20.5-5.5 27.9-7.4 7.4-2 13.4-4.1 13.2-4.6-.3-.9-36.9-50.2-38.2-51.5-.3-.3-11.5-15.1-24.9-33-13.4-17.9-25.2-33.3-26.1-34.4-1.9-2-2.3-1.4 27.3-44.6 4.7-6.9 15.6-22.9 24.2-35.5 8.6-12.7 19.8-29.2 25-36.8 6.6-9.6 8.9-13.7 7.7-13.6-.9.1-5.3 1.1-9.7 2.4zM234.9 255.4c-.2.2-2.6.7-5.4 1-32.5 3.5-63.2 19.6-80.2 42-23 30.4-19.4 74.9 7.7 94.8 6 4.4 17.7 10.2 23 11.3.8.2 5.1 1.3 9.5 2.4 4.4 1 9.8 2.2 12 2.5 42.8 5.8 52.4 9.3 57.1 20.6 1.4 3.3 1 10.7-.9 15-3.9 9.4-18.8 19-33.2 21.5-6.7 1.2-26.7 1.4-31.5.4-2.5-.5-5.6-1.2-7-1.5-4.3-.9-17-6.3-23.5-10l-6.3-3.5-10.3 14.8c-5.6 8.1-12.2 17.6-14.6 20.9-2.4 3.4-4.3 6.6-4.3 7.1 0 1.4 9.2 7.3 18 11.6 8.1 3.9 22.2 8.3 29.8 9.2 2.6.4 5.8.9 7.2 1.1 4.6.9 24 .5 32.3-.6 25.1-3.4 43.2-9.6 60.2-20.6 21.4-13.7 36.1-35 39-56.3.9-6.3.9-16.3.1-20.9-.3-1.7-.8-4.6-1.1-6.2-2.9-17-14.8-33-30-40.4-12.8-6.2-22.5-8.9-45-12.1-7-1.1-9.9-1.5-12.5-2-1.4-.2-4.2-.7-6.2-1-7.4-1-13.4-2.7-19.1-5.2-7.3-3.3-10.9-8.7-10.9-16.2.2-16.8 18.8-29.6 44.7-30.6 13.7-.6 26 2.4 40.6 9.6l5.6 2.8 12.4-21.7c6.8-11.9 12.5-22.1 12.7-22.8.6-2.3-24-13-34.3-14.8-1.6-.3-4.1-.8-5.5-1.2-3.1-.7-29.5-1.6-30.1-1z"/></svg>