<?xml version="1.0" encoding="UTF-8"?>
<svg width="139px" height="25px" viewBox="0 0 139 25" version="1.1" xmlns="http://www.w3.org/2000/svg" xmlns:xlink="http://www.w3.org/1999/xlink">
    <!-- Generator: Sketch 52.6 (67491) - http://www.bohemiancoding.com/sketch -->
    <title>storykit</title>
    <desc>Created with Sketch.</desc>
    <g id="header" stroke="none" stroke-width="1" fill="none" fill-rule="evenodd">
        <path d="M16.4365334,15.3701657 C16.4365334,17.6740331 14.6309873,18.9668508 12.0589357,18.9668508 C10.2533897,18.9668508 8.43081011,18.3535912 7,17.1104972 L8.55004429,15.3038674 C9.62315187,16.1657459 10.7473598,16.7127072 12.1100361,16.7127072 C13.1831437,16.7127072 13.8304149,16.2983425 13.8304149,15.6187845 L13.8304149,15.5856354 C13.8304149,14.9392265 13.421612,14.6077348 11.428698,14.1104972 C9.02698099,13.5138122 7.4769367,12.8674033 7.4769367,10.5635359 L7.4769367,10.5303867 C7.4769367,8.42541436 9.21434898,7.03314917 11.6501329,7.03314917 C13.3875451,7.03314917 14.8694556,7.56353591 16.0788308,8.50828729 L14.7161545,10.4309392 C13.6600804,9.71823204 12.6210397,9.28729282 11.616066,9.28729282 C10.6110922,9.28729282 10.0830551,9.73480663 10.0830551,10.2983425 L10.0830551,10.3314917 C10.0830551,11.0939227 10.5940587,11.3425414 12.6551066,11.8563536 C15.0738571,12.4696133 16.4365334,13.3149171 16.4365334,15.3370166 L16.4365334,15.3701657 Z M32.8141991,9.55248619 L29.1860734,9.55248619 L29.1860734,18.801105 L26.5629216,18.801105 L26.5629216,9.55248619 L22.9347959,9.55248619 L22.9347959,7.19889503 L32.8141991,7.19889503 L32.8141991,9.55248619 Z M51.7809498,13 C51.7809498,16.2983425 49.1066976,19 45.4274716,19 C41.7482456,19 39.1080602,16.3314917 39.1080602,13.0331492 L39.1080602,13 C39.1080602,9.70165746 41.7823125,7 45.4615385,7 C49.1407645,7 51.7809498,9.66850829 51.7809498,12.9668508 L51.7809498,13 Z M49.0385637,13.0331492 L49.0385637,13 C49.0385637,11.0110497 47.5396198,9.35359116 45.4274716,9.35359116 C43.3153233,9.35359116 41.8504463,10.9779006 41.8504463,12.9668508 L41.8504463,13 C41.8504463,14.9889503 43.3493902,16.6464088 45.4615385,16.6464088 C47.5736867,16.6464088 49.0385637,15.0220994 49.0385637,13.0331492 Z M69.7427267,18.801105 L66.676705,18.801105 L64.121687,15.0883978 L62.0606391,15.0883978 L62.0606391,18.801105 L59.4374872,18.801105 L59.4374872,7.19889503 L64.8881924,7.19889503 C67.6987123,7.19889503 69.3850242,8.64088398 69.3850242,11.0276243 L69.3850242,11.0607735 C69.3850242,12.9337017 68.3459835,14.1104972 66.8300061,14.6574586 L69.7427267,18.801105 Z M66.7278054,11.1933702 L66.7278054,11.160221 C66.7278054,10.0662983 65.9442665,9.50276243 64.6667575,9.50276243 L62.0606391,9.50276243 L62.0606391,12.8342541 L64.7178579,12.8342541 C65.9953669,12.8342541 66.7278054,12.1712707 66.7278054,11.1933702 Z M87.2105335,7.19889503 L82.6285344,14.1767956 L82.6285344,18.801105 L80.0053826,18.801105 L80.0053826,14.2265193 L75.4233835,7.19889503 L78.4894052,7.19889503 L81.333992,11.8563536 L84.2296791,7.19889503 L87.2105335,7.19889503 Z M105.019009,18.801105 L101.86782,18.801105 L98.1715609,13.8618785 L96.7918512,15.2541436 L96.7918512,18.801105 L94.1686993,18.801105 L94.1686993,7.19889503 L96.7918512,7.19889503 L96.7918512,12.2707182 L101.629352,7.19889503 L104.797574,7.19889503 L99.9430401,12.121547 L105.019009,18.801105 Z M114.668461,18.801105 L112.045309,18.801105 L112.045309,7.19889503 L114.668461,7.19889503 L114.668461,18.801105 Z M132,9.55248619 L128.371874,9.55248619 L128.371874,18.801105 L125.748722,18.801105 L125.748722,9.55248619 L122.120597,9.55248619 L122.120597,7.19889503 L132,7.19889503 L132,9.55248619 Z" id="STORYKIT" fill="#FF6901"></path>
    </g>
</svg>